<?xml version="1.0" encoding="UTF-8"?>
<svg id="Camada_1" data-name="Camada 1" xmlns="http://www.w3.org/2000/svg" viewBox="0 0 1000 1000">
  <defs>
    <style>
      .cls-1 {
        fill: #fff;
      }

      .cls-2 {
        fill: #0c4d77;
      }
    </style>
  </defs>
  <rect class="cls-2" width="1000" height="1000"/>
  <g>
    <polygon class="cls-1" points="646.17 247.5 854.59 366.11 856.6 379.56 629.54 334.35 231.33 379.43 238.27 367.45 646.17 247.5"/>
    <g>
      <path class="cls-1" d="M278.66,580.36h-85.85l-22.51,39.23h-80.07l143.41-225.08h74.6l53.38,225.08h-75.56l-7.4-39.23ZM268.05,525.7l-10.93-57.56-33.12,57.56h44.05Z"/>
      <path class="cls-1" d="M346.36,524.09c0-79.1,58.84-134.73,142.12-134.73,43.09,0,78.46,16.08,94.86,45.02l-54.66,42.77c-9.65-16.72-24.44-26.37-45.02-26.37-35.69,0-60.77,28.3-60.77,68.49,0,26.37,18.33,44.05,46.3,44.05,17.68,0,34.73-7.39,50.16-26.04l44.69,42.77c-27.33,33.44-60.77,44.69-102.25,44.69-69.77,0-115.44-40.84-115.44-100.64Z"/>
      <path class="cls-1" d="M604.02,394.51h75.89l-45.02,225.08h-75.88l45.02-225.08Z"/>
      <path class="cls-1" d="M826.8,580.36h-85.85l-22.51,39.23h-80.07l143.41-225.08h74.6l53.38,225.08h-75.56l-7.4-39.23ZM816.19,525.7l-10.93-57.56-33.12,57.56h44.05Z"/>
    </g>
    <g>
      <polygon class="cls-1" points="764.75 635.66 758.21 635.66 752.25 645.28 757.94 645.28 764.75 635.66"/>
      <path class="cls-1" d="M95.81,673.1c.07-13.1,9.94-18.79,19.44-18.79,4.33,0,8.64,1.12,11.99,3.35v-5.5c-3.87-2.03-8.31-3.08-12.9-3.08-11.91,0-24.03,8.12-24.1,24.03-.06,15.26,12.51,23.38,24.03,23.38,4.91,0,9.5-1.12,13.29-3.08v-5.5c-3.14,2.22-7.4,3.34-12.12,3.34-9.49,0-19.7-5.9-19.64-18.14Z"/>
      <path class="cls-1" d="M155.71,649.86l-19.97,45.83h5.96l4.71-11.07h24.67l4.71,11.07h5.9l-19.91-45.83h-6.08ZM148.57,679.52l9.42-22.26c.26-.59.46-1.12.73-1.77.25.65.46,1.18.72,1.77l9.5,22.26h-20.36Z"/>
      <path class="cls-1" d="M195.51,661c0-4.91,4.52-6.68,10.54-6.68,4.71-.06,9.81,1.24,13.48,3.61v-5.5c-3.68-2.1-8.85-3.35-13.88-3.35-8.31,0-15.71,3.93-15.71,12.11,0,16.1,27.29,10.93,27.29,23.24,0,5.17-5.44,6.81-11.79,6.81-5.23,0-10.47-1.24-15.32-4.19v5.5c4.45,2.48,9.76,3.93,15.72,3.93,8.77.07,16.96-3.33,16.96-12.44,0-16.43-27.3-11.45-27.3-23.04Z"/>
      <path class="cls-1" d="M249.72,649.86l-19.97,45.83h5.96l4.71-11.07h24.67l4.71,11.07h5.9l-19.91-45.83h-6.08ZM242.58,679.52l9.43-22.25c.27-.59.46-1.12.73-1.77.26.65.46,1.18.72,1.77l9.49,22.25h-20.36Z"/>
      <path class="cls-1" d="M322.06,649.87h-15.06v45.83h15.06c16.17,0,24.22-9.69,24.22-22.91s-8.05-22.91-24.22-22.91ZM322.06,690.45h-9.56v-35.35h9.56c12.37,0,18.66,6.67,18.66,17.68s-6.28,17.68-18.66,17.68Z"/>
      <path class="cls-1" d="M381.44,649.08c-16.04,0-23.95,11.85-23.96,23.69,0,11.86,7.93,23.71,23.96,23.71s23.96-11.85,23.96-23.71-7.93-23.69-23.96-23.69ZM381.44,691.25c-12.45,0-18.39-9.03-18.39-18.47s5.96-18.46,18.39-18.46,18.39,9.03,18.39,18.46-5.96,18.47-18.39,18.47Z"/>
      <polygon class="cls-1" points="446.65 675.2 470.08 675.2 470.08 669.96 446.65 669.96 446.65 655.1 472.05 655.1 472.05 649.87 441.15 649.87 441.15 695.69 472.44 695.69 472.44 690.46 446.65 690.46 446.65 675.2"/>
      <polygon class="cls-1" points="510.61 678.15 491.69 649.87 486.98 649.87 486.98 695.69 492.48 695.69 492.48 660.27 508.91 684.89 512.31 684.89 528.74 660.27 528.74 695.69 534.24 695.69 534.24 649.87 529.53 649.87 510.61 678.15"/>
      <path class="cls-1" d="M567.17,649.87h-15.65v45.83h5.5v-16.24h10.15c10.61,0,19.45-3.33,19.45-14.79s-8.85-14.79-19.45-14.79ZM567.44,674.22h-10.41v-19.12h10.41c7.53,0,13.62,1.77,13.62,9.56s-6.15,9.56-13.62,9.56Z"/>
      <path class="cls-1" d="M635.13,663.75c0-10.47-8.91-13.87-17.15-13.87h-17.94v45.82h0s5.5,0,5.5,0v-18.07h11l15,18.07h6.87l-15.52-18.54c6.48-1.17,12.24-4.97,12.24-13.42ZM605.54,672.39v-17.28h12.71c5.5,0,11.32,1.76,11.32,8.63s-5.82,8.64-11.32,8.64h-12.71Z"/>
      <polygon class="cls-1" points="656.28 675.2 679.71 675.2 679.71 669.96 656.28 669.96 656.28 655.1 681.67 655.1 681.67 649.87 650.78 649.87 650.78 695.69 682.07 695.69 682.07 690.46 656.28 690.46 656.28 675.2"/>
      <path class="cls-1" d="M699.42,661c0-4.91,4.52-6.68,10.54-6.68,4.71-.06,9.81,1.24,13.48,3.61v-5.5c-3.68-2.1-8.84-3.35-13.88-3.35-8.32,0-15.72,3.93-15.7,12.11,0,16.1,27.29,10.93,27.29,23.24,0,5.17-5.43,6.81-11.78,6.81-5.24,0-10.48-1.24-15.33-4.19v5.5c4.45,2.48,9.75,3.93,15.72,3.93,8.76.07,16.95-3.33,16.95-12.44,0-16.43-27.3-11.45-27.3-23.04Z"/>
      <path class="cls-1" d="M753.63,649.86l-19.96,45.83h5.95l4.72-11.07h24.68l4.71,11.07h5.9l-19.9-45.83h-6.09ZM746.49,679.52l9.42-22.26c.27-.59.46-1.12.73-1.77.27.65.46,1.18.72,1.77l9.5,22.26h-20.36Z"/>
      <path class="cls-1" d="M826.49,663.75c0-10.47-8.91-13.87-17.15-13.87h-17.94v45.82h0s5.5,0,5.5,0v-18.07h11l15,18.07h6.87l-15.52-18.54c6.48-1.17,12.24-4.97,12.24-13.42ZM796.9,672.39v-17.28h12.71c5.5,0,11.32,1.76,11.32,8.63s-5.82,8.64-11.32,8.64h-12.71Z"/>
      <rect class="cls-1" x="842.14" y="649.86" width="5.5" height="45.83"/>
      <path class="cls-1" d="M885.8,649.08c-16.04,0-23.95,11.85-23.96,23.69,0,11.86,7.93,23.71,23.96,23.71s23.96-11.85,23.96-23.71-7.93-23.69-23.96-23.69ZM885.8,691.25c-12.44,0-18.39-9.03-18.39-18.47s5.96-18.46,18.39-18.46,18.4,9.03,18.39,18.46c0,9.44-5.96,18.47-18.39,18.47Z"/>
    </g>
  </g>
</svg>